<?xml version="1.0" standalone="no"?>
<!DOCTYPE svg PUBLIC "-//W3C//DTD SVG 20010904//EN"
 "http://www.w3.org/TR/2001/REC-SVG-20010904/DTD/svg10.dtd">
<svg version="1.0" xmlns="http://www.w3.org/2000/svg"
 width="512.000000pt" height="512.000000pt" viewBox="0 0 512.000000 512.000000"
 preserveAspectRatio="xMidYMid meet">

<g transform="translate(0.000000,512.000000) scale(0.100000,-0.100000)"
fill="#000000" stroke="none">
<path d="M2558 4770 c-3 -14 -35 -158 -72 -322 -36 -163 -66 -303 -66 -312 0
-9 -10 -18 -22 -20 -13 -2 -54 -10 -93 -16 -179 -32 -385 -109 -541 -204 -83
-50 -213 -146 -214 -157 0 -7 427 -279 439 -279 5 0 53 22 108 49 159 80 300
114 473 115 176 0 360 -45 509 -125 41 -22 81 -37 89 -34 33 12 432 270 429
278 -4 15 -161 126 -245 174 -174 99 -390 171 -593 198 l-46 6 -16 72 c-8 40
-36 164 -61 277 -25 113 -52 232 -59 265 -10 47 -14 55 -19 35z"/>
<path d="M3615 3398 c-71 -111 -134 -212 -141 -223 -11 -17 -7 -29 27 -85 108
-179 160 -413 139 -634 -15 -158 -68 -319 -146 -448 -23 -37 -33 -65 -29 -76
3 -9 66 -111 138 -225 l132 -208 38 43 c64 72 157 217 213 332 65 131 109 269
134 418 10 61 22 114 27 119 5 5 41 15 79 23 86 17 478 103 519 114 27 8 20
11 -65 30 -385 89 -492 112 -509 112 -28 0 -30 6 -51 133 -25 144 -75 297
-138 423 -52 103 -146 250 -204 317 l-33 39 -130 -204z"/>
<path d="M1348 3530 c-155 -193 -274 -458 -316 -701 l-16 -99 -96 -21 c-52
-12 -151 -34 -220 -49 -69 -16 -172 -39 -230 -51 -58 -12 -111 -25 -118 -28
-7 -4 42 -20 110 -35 68 -15 200 -45 293 -66 94 -21 188 -41 211 -45 l41 -6
23 -127 c37 -211 108 -400 207 -562 64 -103 165 -233 173 -223 4 4 68 103 143
219 l135 212 -62 123 c-92 185 -111 270 -111 489 0 212 16 281 106 467 l59
122 -131 208 c-73 114 -137 213 -143 220 -8 9 -22 -2 -58 -47z"/>
<path d="M2485 3422 c-48 -4 -168 -32 -180 -41 -5 -5 -23 -11 -38 -15 -16 -4
-25 -11 -21 -17 4 -7 0 -9 -12 -5 -23 7 -136 -55 -216 -119 -32 -25 -85 -80
-119 -121 -107 -136 -171 -288 -189 -453 -40 -367 154 -718 485 -877 100 -48
166 -68 288 -85 186 -25 425 36 596 153 66 46 170 153 220 226 53 79 91 164
121 272 34 121 34 308 1 430 -45 162 -141 324 -252 424 -193 174 -433 254
-684 228z m101 -108 c10 -8 13 -12 6 -9 -8 4 -26 11 -40 15 -22 7 -23 8 -6 9
11 1 29 -6 40 -15z m-290 -3 c-3 -5 -15 -11 -26 -14 -17 -4 -19 -3 -9 9 12 15
44 20 35 5z m439 -23 c19 -13 35 -27 35 -32 0 -5 -6 -4 -13 2 -7 6 -23 9 -35
5 -17 -4 -22 -1 -22 15 0 11 -8 23 -17 25 -17 4 -17 5 0 6 9 0 33 -9 52 -21z
m-270 2 c3 -5 2 -10 -4 -10 -5 0 -13 5 -16 10 -3 6 -2 10 4 10 5 0 13 -4 16
-10z m470 -30 c3 -5 2 -10 -4 -10 -5 0 -13 5 -16 10 -3 6 -2 10 4 10 5 0 13
-4 16 -10z m36 -32 c-12 -4 -19 -12 -16 -18 3 -5 1 -10 -4 -10 -16 0 -13 16 5
34 8 9 21 13 27 9 6 -4 1 -10 -12 -15z m-648 -12 c3 -7 -1 -26 -9 -41 -8 -15
-14 -35 -15 -44 0 -10 -4 -7 -10 8 l-10 25 -15 -22 c-14 -21 -8 -55 9 -53 25
3 38 -1 47 -19 8 -15 6 -21 -8 -29 -15 -8 -24 -6 -40 9 -12 11 -28 20 -37 20
-19 0 -19 4 0 39 8 16 11 32 7 36 -4 3 2 14 13 22 20 15 20 15 -2 10 -13 -3
-23 -1 -23 4 0 8 15 13 33 10 4 0 7 5 7 13 0 12 12 20 41 25 4 0 9 -5 12 -13z
m675 -36 c7 -11 9 -20 4 -20 -10 0 -32 22 -32 32 0 15 15 8 28 -12z m-340 -46
c-2 -14 -13 -19 -36 -21 -36 -1 -45 6 -31 27 8 12 12 12 16 3 6 -15 33 -17 33
-3 0 6 -6 10 -12 10 -9 0 -8 3 2 10 19 12 33 -2 28 -26z m148 -30 c74 -60 112
-102 129 -141 8 -17 25 -39 37 -47 12 -9 19 -18 16 -21 -9 -9 -85 32 -91 50
-10 23 -26 18 -19 -7 5 -20 3 -21 -39 -14 -24 4 -51 14 -61 23 -21 19 -24 5
-5 -21 10 -13 31 -19 87 -22 41 -2 79 -9 84 -14 6 -6 6 -10 2 -10 -5 0 -3 -7
4 -15 9 -11 17 -12 32 -4 10 6 24 8 31 6 16 -5 -57 -37 -108 -47 -22 -5 -44
-5 -50 0 -5 4 -25 7 -44 7 -23 0 -39 6 -45 17 -6 10 -34 43 -63 73 -46 48 -50
57 -38 70 20 20 19 30 -5 38 -11 4 -18 11 -15 16 3 5 0 6 -8 3 -8 -3 -18 -1
-22 5 -10 16 -23 13 -28 -6 -4 -15 -5 -14 -6 3 -1 19 5 21 67 22 49 1 77 -4
105 -18 40 -21 51 -11 15 14 -16 11 -18 16 -7 16 8 0 20 -5 26 -11 6 -6 13 -7
17 -1 8 14 -70 73 -88 66 -9 -3 -16 -1 -16 5 0 26 52 8 106 -35z m-334 -8 c5
-8 8 -7 8 2 0 6 4 12 10 12 12 0 44 -60 36 -68 -3 -3 -6 0 -6 6 0 7 -8 12 -19
12 -10 0 -24 7 -31 15 -19 23 -36 18 -60 -15 -12 -16 -20 -30 -18 -31 2 0 20
-1 41 -3 20 -2 46 -11 58 -22 17 -16 19 -25 14 -67 l-7 -49 63 -59 c35 -32 68
-59 75 -59 7 0 16 -9 19 -20 3 -11 13 -20 21 -20 8 0 14 -3 14 -7 0 -5 38 -7
85 -7 79 1 105 -6 70 -20 -8 -3 -15 -14 -15 -24 0 -24 -8 -32 -25 -25 -8 2
-11 12 -8 21 3 11 -3 7 -17 -8 -14 -16 -20 -19 -16 -8 6 20 -9 34 -19 18 -5
-8 -11 -6 -18 3 -10 13 -16 11 -37 -10 -19 -20 -21 -24 -7 -19 11 3 22 4 27 1
8 -5 -80 -105 -93 -105 -4 0 -23 -15 -42 -33 -35 -34 -39 -67 -11 -92 15 -13
20 -45 7 -45 -11 0 -9 -53 3 -100 5 -18 -2 -41 -22 -80 -25 -47 -34 -55 -61
-56 -33 -2 -40 12 -18 35 10 11 8 13 -11 8 -13 -3 -21 -3 -18 0 3 4 1 12 -5
19 -5 7 -11 29 -12 49 -2 22 -12 46 -25 60 -12 12 -22 26 -22 29 0 11 19 6 35
-10 23 -24 29 -11 14 33 -7 21 -13 45 -14 53 -5 43 -18 91 -26 96 -15 9 -10
30 15 57 14 15 21 29 16 32 -4 3 -6 13 -3 23 3 13 -6 23 -32 35 -20 9 -34 21
-31 26 3 5 -1 14 -9 21 -9 8 -13 21 -9 32 7 22 -4 78 -16 78 -4 0 -6 -9 -3
-20 6 -22 -7 -26 -24 -9 -8 8 -5 20 12 45 13 19 26 40 28 47 4 9 7 9 18 0 17
-17 51 -16 75 2 17 13 16 14 -23 10 -24 -2 -43 1 -43 6 0 5 5 9 10 9 6 0 10 7
10 15 0 7 7 18 16 23 13 7 12 13 -11 40 -15 18 -34 32 -43 32 -15 0 -15 2 -2
10 13 8 12 10 -3 10 -10 0 -15 5 -12 11 4 6 13 8 20 5 7 -2 15 4 18 15 3 12
17 22 36 25 17 4 31 10 31 14 0 11 34 8 42 -4z m-292 -26 c0 -5 -7 -10 -15
-10 -8 0 -15 5 -15 10 0 6 7 10 15 10 8 0 15 -4 15 -10z m881 -42 c24 -29 51
-58 59 -65 11 -8 15 -23 12 -51 -3 -33 -8 -41 -27 -45 -19 -3 -26 2 -34 24 -8
22 -6 28 5 31 13 3 13 6 0 23 -13 17 -17 18 -25 5 -15 -23 -32 0 -37 50 -2 23
-9 50 -14 61 -22 40 18 19 61 -33z m-816 12 c-6 -10 51 -60 70 -60 7 0 16 -7
19 -16 4 -11 2 -15 -8 -11 -10 4 -13 1 -9 -9 3 -7 0 -14 -6 -14 -6 0 -11 5
-11 11 0 6 -8 8 -19 4 -13 -4 -24 1 -34 16 -9 11 -19 19 -24 16 -5 -3 -14 3
-20 13 -10 15 -8 23 10 43 20 22 45 28 32 7z m-195 -14 c0 -3 -4 -8 -10 -11
-5 -3 -10 -1 -10 4 0 6 5 11 10 11 6 0 10 -2 10 -4z m95 -56 c-4 -12 -9 -19
-12 -17 -3 3 -2 15 2 27 4 12 9 19 12 17 3 -3 2 -15 -2 -27z m-105 10 c0 -5
-4 -10 -10 -10 -5 0 -10 5 -10 10 0 6 5 10 10 10 6 0 10 -4 10 -10z m40 -4 c0
-2 -7 -6 -15 -10 -8 -3 -15 -1 -15 4 0 6 7 10 15 10 8 0 15 -2 15 -4z m555
-26 c-3 -5 -11 -10 -16 -10 -6 0 -7 5 -4 10 3 6 11 10 16 10 6 0 7 -4 4 -10z
m395 -32 c0 -15 -27 -8 -45 12 -17 19 -17 19 14 7 17 -6 31 -15 31 -19z m-940
12 c0 -5 -7 -10 -15 -10 -8 0 -15 5 -15 10 0 6 7 10 15 10 8 0 15 -4 15 -10z
m156 -1 c3 -6 7 -34 9 -62 1 -29 0 -44 -2 -34 -5 20 -12 21 -49 7 -21 -8 -31
-7 -45 6 -17 15 -17 18 -1 40 9 13 25 24 35 24 9 0 17 7 17 15 0 17 26 20 36
4z m39 -9 c3 -5 1 -10 -4 -10 -6 0 -11 5 -11 10 0 6 2 10 4 10 3 0 8 -4 11
-10z m352 -12 c-3 -8 -6 -5 -6 6 -1 11 2 17 5 13 3 -3 4 -12 1 -19z m-299 1
c-2 -6 -8 -10 -13 -10 -5 0 -11 4 -13 10 -2 6 4 11 13 11 9 0 15 -5 13 -11z
m-28 -39 c0 -5 -4 -10 -10 -10 -5 0 -10 5 -10 10 0 6 5 10 10 10 6 0 10 -4 10
-10z m-10 -24 c0 -3 -4 -8 -10 -11 -5 -3 -10 -1 -10 4 0 6 5 11 10 11 6 0 10
-2 10 -4z m756 -92 c-3 -7 0 -15 7 -17 7 -2 9 -8 5 -12 -4 -4 -14 -2 -23 5
-22 18 -29 6 -9 -15 25 -24 57 -86 49 -93 -4 -4 -11 1 -16 10 -7 13 -17 16
-40 11 -26 -5 -30 -3 -27 13 2 10 11 21 22 24 17 5 17 6 -3 30 -16 20 -23 22
-29 12 -7 -10 -11 -7 -14 12 -6 30 12 49 36 40 9 -4 16 -1 16 6 0 10 4 10 15
0 9 -7 14 -19 11 -26z m-847 15 c13 -9 26 -9 48 -1 22 7 34 7 42 -1 18 -18 13
-29 -11 -22 -20 5 -18 2 10 -25 48 -44 38 -55 -49 -55 -61 0 -73 3 -70 15 3 8
5 34 5 58 0 47 -1 46 25 31z m-44 -9 c7 -12 -2 -12 -30 0 -19 8 -19 9 2 9 12
1 25 -3 28 -9z m770 -29 c3 -6 -3 -15 -14 -20 -26 -14 -31 -14 -31 3 0 21 34
34 45 17z m-1052 -59 c-3 -12 -9 -22 -14 -22 -14 0 -11 38 4 43 16 6 17 5 10
-21z m965 -42 c-7 -10 -14 -17 -17 -15 -4 4 18 35 25 35 2 0 -1 -9 -8 -20z
m-38 0 c0 -5 -4 -10 -9 -10 -5 0 -14 -14 -21 -30 -15 -37 -90 -94 -104 -80
-15 15 23 52 46 44 13 -4 21 2 30 23 21 45 58 80 58 53z m-562 -54 c3 -12 -1
-17 -10 -14 -7 3 -15 13 -16 22 -3 12 1 17 10 14 7 -3 15 -13 16 -22z m57 -2
c-22 -16 -37 -14 -44 7 -3 11 -2 12 11 1 13 -10 18 -9 28 3 7 9 16 13 19 9 3
-3 -3 -12 -14 -20z m845 2 c0 -3 -4 -8 -10 -11 -5 -3 -10 -1 -10 4 0 6 5 11
10 11 6 0 10 -2 10 -4z m-783 -58 c-3 -8 -6 -5 -6 6 -1 11 2 17 5 13 3 -3 4
-12 1 -19z m-64 -41 c-7 -14 -12 -17 -17 -9 -4 7 -3 12 2 12 5 0 7 12 5 28 -4
24 -3 25 7 8 8 -12 9 -25 3 -39z m309 21 c-7 -7 -12 -8 -12 -2 0 14 12 26 19
19 2 -3 -1 -11 -7 -17z m248 6 c0 -8 -5 -12 -10 -9 -6 4 -8 11 -5 16 9 14 15
11 15 -7z m-237 -91 c-30 -24 -44 -23 -23 2 7 9 10 18 7 21 -3 3 2 14 11 25
16 19 17 19 25 -3 7 -19 3 -27 -20 -45z m312 1 c13 -10 13 -14 -3 -35 -20 -28
-21 -45 -4 -76 15 -28 15 -36 0 -28 -7 4 -3 -2 8 -12 17 -15 19 -22 10 -34 -6
-9 -18 -18 -26 -22 -9 -3 -4 -6 12 -6 18 -1 29 -8 33 -22 4 -11 12 -18 19 -16
7 3 21 -4 30 -15 14 -15 15 -23 5 -34 -7 -8 -20 -12 -30 -9 -21 7 -29 -5 -32
-51 -2 -20 -8 -29 -19 -28 -9 1 -14 -4 -12 -11 3 -6 -2 -18 -11 -25 -8 -7 -15
-19 -15 -26 0 -10 -13 -14 -40 -14 -22 0 -40 -4 -40 -10 0 -5 -4 -10 -10 -10
-5 0 -7 6 -4 13 2 7 1 24 -5 38 -8 22 -10 22 -16 5 -5 -11 -3 -21 6 -27 12 -8
12 -9 -1 -7 -16 2 -57 -17 -78 -39 -17 -16 -42 -17 -42 0 0 9 -2 9 -8 -1 -6
-8 -19 -10 -40 -6 -28 6 -31 9 -20 22 11 13 11 14 -1 7 -9 -5 -19 -2 -29 11
-13 16 -14 17 -9 2 4 -12 1 -18 -8 -18 -7 0 -15 8 -17 17 -3 16 -4 16 -18 1
-17 -18 -55 -9 -75 19 -8 10 -20 14 -34 10 -12 -3 -21 0 -21 6 0 6 -3 7 -6 4
-4 -3 -15 4 -25 18 -11 13 -35 29 -55 35 -19 7 -33 17 -31 23 4 13 47 12 57
-1 3 -4 21 -8 40 -10 26 -1 31 1 20 8 -11 7 -11 10 -2 10 7 0 15 -7 18 -15 4
-8 13 -15 21 -15 12 0 12 3 -2 16 -24 25 -11 28 35 10 22 -9 49 -16 60 -16 11
0 20 -7 20 -15 0 -8 9 -15 19 -15 11 0 23 -9 26 -20 3 -11 13 -20 21 -21 81
-5 88 -3 96 26 6 24 2 33 -26 59 -18 17 -40 43 -50 58 -16 25 -16 27 3 61 11
19 17 38 14 41 -4 3 -1 6 6 6 8 0 11 8 8 19 -3 13 0 18 8 15 14 -6 30 12 39
46 5 17 4 21 -2 11 -6 -8 -12 -9 -16 -3 -3 6 -1 14 5 17 5 4 8 13 5 21 -3 9 0
11 11 7 10 -4 14 -2 10 4 -4 6 7 13 25 17 24 5 37 1 53 -14 12 -11 27 -20 33
-20 7 0 12 -8 12 -17 0 -15 2 -16 10 -3 6 10 4 21 -8 34 -9 11 -12 17 -7 14 6
-3 20 -2 33 3 17 6 22 16 22 42 0 42 12 55 22 25 5 -13 15 -28 23 -34z m-694
-5 c-9 -23 -10 -23 -10 -2 -1 12 -4 30 -7 40 -6 16 -5 17 10 2 13 -12 14 -21
7 -40z m706 19 c-3 -8 -6 -5 -6 6 -1 11 2 17 5 13 3 -3 4 -12 1 -19z m-90 -5
c-4 -3 -2 -12 4 -20 7 -8 8 -13 1 -13 -12 0 -23 26 -15 34 4 3 9 6 11 6 3 0 2
-3 -1 -7z m-154 -10 c2 -5 -4 -15 -13 -24 -13 -12 -18 -13 -29 -2 -9 10 -9 13
4 13 8 0 15 5 15 10 0 12 17 14 23 3z m-428 -43 c3 -5 2 -10 -4 -10 -5 0 -13
5 -16 10 -3 6 -2 10 4 10 5 0 13 -4 16 -10z m125 -10 c0 -5 -2 -10 -4 -10 -3
0 -8 5 -11 10 -3 6 -1 10 4 10 6 0 11 -4 11 -10z m580 0 c0 -5 -2 -10 -4 -10
-3 0 -8 5 -11 10 -3 6 -1 10 4 10 6 0 11 -4 11 -10z m-700 -40 c0 -5 -9 -12
-20 -15 -20 -6 -28 -25 -11 -25 5 0 22 -5 38 -11 22 -8 24 -12 13 -19 -12 -7
-12 -12 -2 -22 17 -17 15 -48 -3 -48 -8 0 -15 7 -15 15 0 8 -4 15 -9 15 -14 0
-20 -52 -9 -75 5 -12 -3 -7 -21 12 -17 19 -33 28 -36 22 -10 -15 -35 9 -35 33
0 12 -4 16 -11 12 -7 -4 -10 -1 -7 7 3 8 15 13 26 12 l21 -3 -20 36 c-16 30
-17 35 -4 31 13 -6 14 -3 5 14 -10 18 -8 19 23 16 19 -2 39 -7 45 -11 8 -5 10
-2 6 9 -5 11 -2 14 10 9 9 -3 16 -10 16 -14z m310 10 c0 -5 -4 -10 -10 -10 -5
0 -10 5 -10 10 0 6 5 10 10 10 6 0 10 -4 10 -10z m77 -12 c-3 -8 -6 -5 -6 6
-1 11 2 17 5 13 3 -3 4 -12 1 -19z m353 -38 c0 -5 -2 -10 -4 -10 -3 0 -8 5
-11 10 -3 6 -1 10 4 10 6 0 11 -4 11 -10z m-4 -30 c8 0 14 -4 14 -10 0 -5 -4
-10 -8 -10 -12 0 -32 22 -31 35 0 5 3 4 6 -2 2 -7 11 -13 19 -13z m-646 -30
c0 -5 -2 -10 -4 -10 -3 0 -8 5 -11 10 -3 6 -1 10 4 10 6 0 11 -4 11 -10z m615
1 c-3 -6 3 -15 14 -21 17 -9 19 -8 15 5 -4 8 -2 15 4 15 10 0 22 -23 22 -40 0
-5 -13 -5 -30 0 -16 5 -30 6 -30 2 0 -4 -5 1 -11 11 -11 18 -5 37 12 37 6 0 8
-4 4 -9z m70 0 c3 -5 1 -12 -5 -16 -5 -3 -10 1 -10 9 0 18 6 21 15 7z m-641
-83 c9 -17 14 -33 12 -35 -6 -7 -46 49 -46 64 0 21 16 7 34 -29z m-93 -11 c0
4 5 -3 10 -17 8 -18 12 -21 18 -11 7 11 13 11 27 1 18 -11 18 -11 0 -6 -13 5
-17 2 -12 -9 9 -24 -8 -17 -50 21 -22 21 -29 31 -16 25 12 -7 22 -8 23 -4z
m359 -101 c0 -5 -7 -3 -15 4 -8 6 -20 8 -27 4 -7 -4 -10 -4 -6 1 11 12 -11 35
-28 28 -10 -3 -14 2 -14 19 0 14 3 28 7 32 8 7 82 -72 83 -88z m-108 59 c4
-19 1 -25 -12 -25 -23 0 -29 8 -23 31 7 27 30 24 35 -6z m-52 0 c0 -8 -4 -15
-9 -15 -13 0 -22 16 -14 24 11 11 23 6 23 -9z m514 -14 c10 -15 -18 -19 -32
-5 -11 12 -9 14 7 14 11 0 22 -4 25 -9z m-51 -36 c-7 -21 -13 -19 -13 6 0 11
4 18 10 14 5 -3 7 -12 3 -20z m-33 -55 c0 -5 -7 -7 -15 -4 -8 4 -15 8 -15 10
0 2 7 4 15 4 8 0 15 -4 15 -10z m-532 -55 c-3 -3 -9 2 -12 12 -6 14 -5 15 5 6
7 -7 10 -15 7 -18z m376 0 c4 -11 -2 -15 -21 -15 -26 0 -26 1 -7 15 10 8 20
15 20 15 1 0 4 -7 8 -15z m-74 -33 c0 -4 -15 -8 -32 -9 -30 -1 -31 -1 -8 7 34
11 40 11 40 2z m-117 -39 c-7 -2 -19 -2 -25 0 -7 3 -2 5 12 5 14 0 19 -2 13
-5z m44 1 c-3 -3 -12 -4 -19 -1 -8 3 -5 6 6 6 11 1 17 -2 13 -5z"/>
<path d="M2828 2984 c19 -13 21 -19 11 -32 -11 -15 -11 -15 6 0 15 14 16 20 5
32 -7 9 -20 16 -28 16 -12 0 -11 -4 6 -16z"/>
<path d="M2435 2250 c3 -5 8 -10 11 -10 2 0 4 5 4 10 0 6 -5 10 -11 10 -5 0
-7 -4 -4 -10z"/>
<path d="M2473 2234 c-8 -20 8 -48 31 -52 24 -5 20 15 -5 21 -16 4 -19 11 -14
26 8 25 -3 29 -12 5z"/>
<path d="M2205 2740 c3 -5 11 -10 16 -10 6 0 7 5 4 10 -3 6 -11 10 -16 10 -6
0 -7 -4 -4 -10z"/>
<path d="M2870 2361 c0 -6 5 -13 10 -16 6 -3 10 1 10 9 0 9 -4 16 -10 16 -5 0
-10 -4 -10 -9z"/>
<path d="M2679 2209 c-12 -22 3 -51 18 -34 5 4 2 10 -4 12 -9 3 -10 10 -3 24
6 10 8 19 6 19 -3 0 -10 -9 -17 -21z"/>
<path d="M2875 2210 c-3 -5 -1 -10 4 -10 6 0 11 5 11 10 0 6 -2 10 -4 10 -3 0
-8 -4 -11 -10z"/>
<path d="M2960 2140 c0 -5 -6 -10 -14 -10 -8 0 -17 -7 -20 -16 -3 -9 -3 -14 1
-12 5 3 23 10 40 17 18 7 30 17 27 22 -7 12 -34 11 -34 -1z"/>
<path d="M2805 2120 c-3 -6 1 -7 9 -4 18 7 21 14 7 14 -6 0 -13 -4 -16 -10z"/>
<path d="M2850 2100 c0 -5 5 -10 11 -10 5 0 7 5 4 10 -3 6 -8 10 -11 10 -2 0
-4 -4 -4 -10z"/>
<path d="M2895 2080 c-3 -5 -2 -10 4 -10 5 0 13 5 16 10 3 6 2 10 -4 10 -5 0
-13 -4 -16 -10z"/>
<path d="M2850 2065 c0 -8 4 -15 10 -15 5 0 7 7 4 15 -4 8 -8 15 -10 15 -2 0
-4 -7 -4 -15z"/>
<path d="M2826 2045 c-9 -26 -7 -32 5 -12 6 10 9 21 6 23 -2 3 -7 -2 -11 -11z"/>
<path d="M2630 1919 c0 -5 5 -7 10 -4 6 3 10 8 10 11 0 2 -4 4 -10 4 -5 0 -10
-5 -10 -11z"/>
<path d="M2205 2200 c3 -5 10 -10 16 -10 5 0 9 5 9 10 0 6 -7 10 -16 10 -8 0
-12 -4 -9 -10z"/>
<path d="M1767 1513 l-217 -138 39 -36 c111 -100 316 -212 502 -273 108 -36
246 -66 298 -66 5 0 11 -12 14 -27 41 -193 114 -525 133 -603 5 -21 8 -17 21
30 14 54 80 348 112 502 9 42 20 80 24 84 4 4 57 13 117 21 242 29 560 168
748 326 l42 36 -42 29 c-24 16 -124 80 -222 142 l-179 114 -51 -28 c-132 -75
-296 -125 -436 -134 -230 -16 -426 25 -610 127 -30 17 -60 31 -66 31 -6 0
-108 -62 -227 -137z"/>
</g>
</svg>
